<svg id="Capa_1" data-name="Capa 1" xmlns="http://www.w3.org/2000/svg" viewBox="0 0 320.76 421.04"><defs><style>.cls-1{fill:#fff;}</style></defs><path class="cls-1" d="M817.68,720H754.32c-9.86,0-13.22-3.64-12-13.26.2-1.54-.3-1.61-1.45-1.74-2.79-.32-3.79-2.37-4.62-4.74-1.51-4.35-2.11-8.93-3.11-13.38-2.75-12.32-9.54-22-18.19-30.71-9.13-9.2-18.93-17.81-26.54-28.41a154.35,154.35,0,0,1-15-25,178.74,178.74,0,0,1-11.36-32.59c-4.3-17.46-4.94-35.25-3.67-53a137.31,137.31,0,0,1,4.5-24.38,156.66,156.66,0,0,1,7.36-22.18c8.5-20.11,21-37.43,36.73-52.62a157.15,157.15,0,0,1,52.67-33.39,166.2,166.2,0,0,1,30.73-8.52c9.05-1.65,18.17-1.74,27.15-2.12a129.44,129.44,0,0,1,26,2,161.85,161.85,0,0,1,19.88,4.65,198.83,198.83,0,0,1,25.71,9.93c19.11,8.75,34.49,22.17,48.62,37.32,12.3,13.18,21.28,28.44,28.23,45a147.59,147.59,0,0,1,9.7,32.69c1.95,11.57,3.47,23.17,2.7,34.88-.58,8.79-1.24,17.71-3.31,26.22-4.72,19.41-12.16,37.79-23.36,54.53A160.86,160.86,0,0,1,924.67,652,76.76,76.76,0,0,0,900.83,690c-.61,2.24-.23,4.73-.55,7.07a7.09,7.09,0,0,1-1.39,3.43,17,17,0,0,0-4,11.84c.05,3.53-6.26,7.55-10.88,7.58-10.5.07-21,0-31.5,0Zm-.22-20.34v0h26.25c12.87,0,25.75,0,38.62,0,2.54,0,4.63-.66,3.4-3.61-4.06-9.68-.44-18.47,3.57-26.78,6.13-12.71,15.7-23,25.77-32.73,9.12-8.79,17.58-18,24.09-29a147,147,0,0,0,16.52-38.63,156.82,156.82,0,0,0,4.75-31.6,118.93,118.93,0,0,0-3.86-35.49,142.06,142.06,0,0,0-5.77-18.46,161.47,161.47,0,0,0-18.61-33.56,133.42,133.42,0,0,0-29.93-30.16A138.16,138.16,0,0,0,864,399.75c-9-3-18.25-5.86-27.45-6.4-20.35-1.19-40.78-1.6-60.7,5.07a153.22,153.22,0,0,0-39.34,19.4c-10.92,7.61-21.21,16-29.49,26.79a163.37,163.37,0,0,0-18,28.33c-4.79,9.92-7.84,20.43-10.33,31.09a86.34,86.34,0,0,0-2.36,15.47c-.84,18,.52,35.7,5.42,53.22a142.82,142.82,0,0,0,22,45.43c8.47,11.76,19.18,21.61,28.79,32.4,8.12,9.14,15.71,18.36,18,30.75.78,4.15,1.33,8.33-.81,12.42s-.83,5.92,3.89,5.93Z" transform="translate(-657.84 -373.87)"/><path class="cls-1" d="M817.2,749.93c-19.48,0-39,.15-58.44-.09-5.73-.07-11.58-1.27-15-6.65s1.36-14.55,7.87-14.94c4.23-.26,8.49-.11,12.73-.11,15,0,30-.29,44.95.17,17.22.51,34.45.31,51.65.75,7.48.19,15,.47,22.44.6,4.54.08,8.84,3.29,9.54,7,1.09,5.81-.62,9-6.35,11a36.56,36.56,0,0,1-12,2.35C855.4,749.87,836.3,749.94,817.2,749.93Z" transform="translate(-657.84 -373.87)"/><path class="cls-1" d="M803.79,755.94c10.48-.4,23.7.48,36.93.64,5.11,0,10.22-.42,15.33-.59,4.08-.14,7.92,1.16,11.63,2.58,2.52,1,4.91,2.51,5.05,5.88a7.45,7.45,0,0,1-4.16,7.38c-5.8,3.12-11.57,6.31-17.52,9.13-9.21,4.36-18.21,9.2-27.84,12.67a18.67,18.67,0,0,1-13.75-.07c-5.43-2.1-11-3.87-16.4-6.08-7.8-3.2-15.66-6.27-23.21-10-3.56-1.75-6.93-4.35-7.44-9.12-.81-7.44,5.42-12.27,12.76-12.4C783.79,755.83,792.41,755.94,803.79,755.94Z" transform="translate(-657.84 -373.87)"/><path class="cls-1" d="M818.61,616.83a4.38,4.38,0,0,0-2,3.94c.5,7.2-1.28,14.18-2.49,21.13-1.69,9.78-1.59,19.87-5,29.37-.81,2.29-1.77,3.9-4.38,3.6s-2.28-2.4-2.74-4.23c-2.25-8.94-2.45-18-2-27.13.7-12.58,1.28-25.23,2.59-37.7,1.1-10.48-.59-21.11,1.93-31.3,1.68-6.78-.48-12.46-2.82-18.21-2.94-7.24-5.13-14.82-9.4-21.49-1.33-2.08-2.6-4.2-3.93-6.35-2.14,2.48-1.53,5.58-2.39,8.26-4.8,14.87-5.46,29.92-3.81,45.46,1,9,2.28,18.05,2.89,27.14a154.83,154.83,0,0,0,2.49,16.23,42.67,42.67,0,0,1,1.12,9.28c-.29,7.73.24,15.45.22,23.18s-2,14.78-4.28,21.87c-.78,2.45-2.24,4.92-5.52,4.77-3.54-.17-4.45-3.28-5.14-5.68-2.81-9.81-5.21-19.74-7.77-29.63-2.74-10.61-5.57-21.22-9.57-31.42-6.14-15.68-16.32-28.72-27.45-41.12-13.53-15.09-28.83-28.32-43.71-42a42.12,42.12,0,0,1-4.21-4.24,3.39,3.39,0,0,1,0-4.78c1.47-1.62,3-1.19,4.68-.15,8.92,5.47,17.47,11.58,27,16.08s19.5,7.86,30.26,6.3a30.7,30.7,0,0,0,20.27-11.47,171.08,171.08,0,0,0,12.88-17.9,6.54,6.54,0,0,1,1.84-1.83,2.55,2.55,0,0,0,.78-3.88c-4.12-6.69-6.75-14.08-9.58-21.33-3.07-7.84-5.65-15.9-8.09-24-1.14-3.78-.44-7.87-1.34-11.83-.55-2.45,1.5-5.42,4.38-6.3s4.41,1.6,5.55,3.55c4.36,7.41,8.5,14.95,12.67,22.48,6,10.82,14.52,19.51,26.64,21.78s23.81,1.3,34.56-7.4c9.39-7.61,14.68-17.29,20-27.41a51.93,51.93,0,0,1,9.75-12.7c1-1,2.18-2.28,3.93-1.39a5.09,5.09,0,0,1,2.81,4.09c.78,4.75-1.58,8.81-2.78,13-3.51,12.33-7.63,24.44-13.59,35.93-5.73,11.06-4.59,21.81,3.58,31.58,3.28,3.91,6.12,8.15,10.56,11,10.69,6.88,21.78,8.43,33.73,3.6,8-3.25,15.15-8,22.46-12.54,5.21-3.2,10.31-6.58,15.41-9.94,2.24-1.47,4.23-1.37,6,.68,2,2.33,0,3.7-1.49,4.92-7.14,5.83-14.79,11-21.39,17.52a510,510,0,0,0-42.06,46.24c-6.61,8.36-10.76,18.06-14.37,28.09s-6.43,20.1-9,30.29c-1.93,7.55-3.43,15.21-5.75,22.67a33.37,33.37,0,0,1-2.84,6.45c-1.95,3.46-4.77,3.48-6.9.15a24,24,0,0,1-3-8c-2.67-12.55-3.53-25.09-.33-37.76,1-3.79.65-7.83,1.52-11.79,1.88-8.46,2.72-17.15,4.25-25.69.92-5.12,2.78-10.09,3.46-15.23.84-6.44.17-13-.7-19.38a43.59,43.59,0,0,1-.78-8.57c.69-10.82-2.23-21.32-2.61-32a1.18,1.18,0,0,0-.86-1.29A168.29,168.29,0,0,0,839,547.37c-2.61,5.94-4.52,12.11-6.89,18.13a11.44,11.44,0,0,0-.16,7.74,32.53,32.53,0,0,1,1.17,9.62c.22,11.61,2.06,23.09,2.7,34.68.62,11.37,3.58,22.67,3.06,34.16a42.37,42.37,0,0,1-5.6,19.9c-1.89,3.16-4.08,3-5.77-.31a8.15,8.15,0,0,1-1.16-3.51c0-9-3.08-17.59-4.19-26.47C821.11,633.26,818.15,625.49,818.61,616.83Z" transform="translate(-657.84 -373.87)"/><path class="cls-1" d="M839,466.62c1.59,13.28-12.2,21.14-21.55,21.42-10.21.3-21.18-11.64-20.94-22.13.24-11,10.18-21.88,20.89-21.4C827.36,445,839.83,451.68,839,466.62Z" transform="translate(-657.84 -373.87)"/><path class="cls-1" d="M901.73,540.72c-11,1-19.41-8.78-18.93-19.32a19.65,19.65,0,0,1,19.49-18.94c11.36-.13,19.23,8.53,19.16,19.53S913.2,540.73,901.73,540.72Z" transform="translate(-657.84 -373.87)"/><path class="cls-1" d="M735.54,503.15c12.18-.93,18.71,10.32,18.47,18.69-.31,10.5-8.84,19.19-19.42,18.74a19.64,19.64,0,0,1-18.42-19.18A17.88,17.88,0,0,1,735.54,503.15Z" transform="translate(-657.84 -373.87)"/></svg>